<svg width="1202" height="592" viewBox="0 0 1202 592" fill="none" xmlns="http://www.w3.org/2000/svg">
<g filter="url(#filter0_d_5_2)">
<path d="M171.594 81.9401L170.45 83.8672C159.288 102.654 157.736 125.632 166.269 145.75L180.674 179.711C185.711 191.584 194.384 201.553 205.447 208.182L208.133 209.792C235.008 225.898 269.824 217.624 286.581 191.15C292.358 182.022 295.459 171.455 295.529 160.652L295.815 116.49C295.941 97.0623 287.602 78.5424 272.972 65.7586C241.545 38.2969 192.911 46.0596 171.594 81.9401Z" fill="#202020"/>
<path d="M171.594 81.9401L170.45 83.8672C159.288 102.654 157.736 125.632 166.269 145.75L180.674 179.711C185.711 191.584 194.384 201.553 205.447 208.182L208.133 209.792C235.008 225.898 269.824 217.624 286.581 191.15C292.358 182.022 295.459 171.455 295.529 160.652L295.815 116.49C295.941 97.0623 287.602 78.5424 272.972 65.7586C241.545 38.2969 192.911 46.0596 171.594 81.9401Z" stroke="#FAE100" stroke-width="5"/>
</g>
<g filter="url(#filter1_d_5_2)">
<path d="M47.2376 217.676L47.115 219.511C45.9477 236.98 52.8505 254.02 65.8464 265.752L92.4192 289.74C100.094 296.668 109.727 301.049 119.994 302.279L122.522 302.582C149.051 305.762 172.991 286.467 175.52 259.868C176.339 251.252 174.791 242.576 171.044 234.775L153.025 197.269C146.286 183.241 133.986 172.672 119.103 168.121C84.7768 157.626 49.6307 181.861 47.2376 217.676Z" fill="#202020"/>
<path d="M47.2376 217.676L47.115 219.511C45.9477 236.98 52.8505 254.02 65.8464 265.752L92.4192 289.74C100.094 296.668 109.727 301.049 119.994 302.279L122.522 302.582C149.051 305.762 172.991 286.467 175.52 259.868C176.339 251.252 174.791 242.576 171.044 234.775L153.025 197.269C146.286 183.241 133.986 172.672 119.103 168.121C84.7768 157.626 49.6307 181.861 47.2376 217.676Z" stroke="#FAE100" stroke-width="5"/>
</g>
<g filter="url(#filter2_d_5_2)">
<path d="M359.4 66.1225L357.653 67.5267C340.619 81.2152 331.118 102.195 332.066 124.027L333.665 160.881C334.225 173.766 338.858 186.142 346.898 196.226L348.85 198.674C368.383 223.172 403.892 227.615 428.859 208.686C437.467 202.159 444.072 193.347 447.92 183.253L463.655 141.988C470.576 123.834 469.251 103.567 460.025 86.469C440.206 49.7404 391.933 39.9796 359.4 66.1225Z" fill="#202020"/>
<path d="M359.4 66.1225L357.653 67.5267C340.619 81.2152 331.118 102.195 332.066 124.027L333.665 160.881C334.225 173.766 338.858 186.142 346.898 196.226L348.85 198.674C368.383 223.172 403.892 227.615 428.859 208.686C437.467 202.159 444.072 193.347 447.92 183.253L463.655 141.988C470.576 123.834 469.251 103.567 460.025 86.469C440.206 49.7404 391.933 39.9796 359.4 66.1225Z" stroke="#FAE100" stroke-width="5"/>
</g>
<g filter="url(#filter3_d_5_2)">
<path d="M506.77 159.21L505.038 159.705C488.762 164.359 475.431 176.067 468.714 191.606L453.527 226.74C449.558 235.921 448.488 246.095 450.461 255.901L450.95 258.334C456.229 284.577 482.427 301.033 508.36 294.396C516.466 292.321 523.868 288.108 529.79 282.196L560.85 251.19C571.499 240.56 577.338 226.038 577.012 210.995C576.228 174.884 541.497 149.279 506.77 159.21Z" fill="#202020"/>
<path d="M506.77 159.21L505.038 159.705C488.762 164.359 475.431 176.067 468.714 191.606L453.527 226.74C449.558 235.921 448.488 246.095 450.461 255.901L450.95 258.334C456.229 284.577 482.427 301.033 508.36 294.396C516.466 292.321 523.868 288.108 529.79 282.196L560.85 251.19C571.499 240.56 577.338 226.038 577.012 210.995C576.228 174.884 541.497 149.279 506.77 159.21Z" stroke="#FAE100" stroke-width="5"/>
</g>
<g filter="url(#filter4_d_5_2)">
<path d="M171.594 81.9401L170.45 83.8672C159.288 102.654 157.736 125.632 166.269 145.75L180.674 179.711C185.711 191.584 194.384 201.553 205.447 208.182L208.133 209.792C235.008 225.898 269.824 217.624 286.581 191.15C292.358 182.022 295.459 171.455 295.529 160.652L295.815 116.49C295.941 97.0623 287.602 78.5424 272.972 65.7586C241.545 38.2969 192.911 46.0596 171.594 81.9401Z" fill="#202020"/>
<path d="M171.594 81.9401L170.45 83.8672C159.288 102.654 157.736 125.632 166.269 145.75L180.674 179.711C185.711 191.584 194.384 201.553 205.447 208.182L208.133 209.792C235.008 225.898 269.824 217.624 286.581 191.15C292.358 182.022 295.459 171.455 295.529 160.652L295.815 116.49C295.941 97.0623 287.602 78.5424 272.972 65.7586C241.545 38.2969 192.911 46.0596 171.594 81.9401Z" stroke="#FAE100" stroke-width="5"/>
</g>
<g filter="url(#filter5_d_5_2)">
<path d="M47.2376 217.676L47.115 219.511C45.9477 236.98 52.8505 254.02 65.8464 265.752L92.4192 289.74C100.094 296.668 109.727 301.049 119.994 302.279L122.522 302.582C149.051 305.762 172.991 286.467 175.52 259.868C176.339 251.252 174.791 242.576 171.044 234.775L153.025 197.269C146.286 183.241 133.986 172.672 119.103 168.121C84.7768 157.626 49.6307 181.861 47.2376 217.676Z" fill="#202020"/>
<path d="M47.2376 217.676L47.115 219.511C45.9477 236.98 52.8505 254.02 65.8464 265.752L92.4192 289.74C100.094 296.668 109.727 301.049 119.994 302.279L122.522 302.582C149.051 305.762 172.991 286.467 175.52 259.868C176.339 251.252 174.791 242.576 171.044 234.775L153.025 197.269C146.286 183.241 133.986 172.672 119.103 168.121C84.7768 157.626 49.6307 181.861 47.2376 217.676Z" stroke="#FAE100" stroke-width="5"/>
</g>
<g filter="url(#filter6_d_5_2)">
<path d="M359.4 66.1225L357.653 67.5267C340.619 81.2152 331.118 102.195 332.066 124.027L333.665 160.881C334.225 173.766 338.858 186.142 346.898 196.226L348.85 198.674C368.383 223.172 403.892 227.615 428.859 208.686C437.467 202.159 444.072 193.347 447.92 183.253L463.655 141.988C470.576 123.834 469.251 103.567 460.025 86.469C440.206 49.7404 391.933 39.9796 359.4 66.1225Z" fill="#202020"/>
<path d="M359.4 66.1225L357.653 67.5267C340.619 81.2152 331.118 102.195 332.066 124.027L333.665 160.881C334.225 173.766 338.858 186.142 346.898 196.226L348.85 198.674C368.383 223.172 403.892 227.615 428.859 208.686C437.467 202.159 444.072 193.347 447.92 183.253L463.655 141.988C470.576 123.834 469.251 103.567 460.025 86.469C440.206 49.7404 391.933 39.9796 359.4 66.1225Z" stroke="#FAE100" stroke-width="5"/>
</g>
<g filter="url(#filter7_d_5_2)">
<path d="M506.77 159.21L505.038 159.705C488.762 164.359 475.431 176.067 468.714 191.606L453.527 226.74C449.558 235.921 448.488 246.095 450.461 255.901L450.95 258.334C456.229 284.577 482.427 301.033 508.36 294.396C516.466 292.321 523.868 288.108 529.79 282.196L560.85 251.19C571.499 240.56 577.338 226.038 577.012 210.995C576.228 174.884 541.497 149.279 506.77 159.21Z" fill="#202020"/>
<path d="M506.77 159.21L505.038 159.705C488.762 164.359 475.431 176.067 468.714 191.606L453.527 226.74C449.558 235.921 448.488 246.095 450.461 255.901L450.95 258.334C456.229 284.577 482.427 301.033 508.36 294.396C516.466 292.321 523.868 288.108 529.79 282.196L560.85 251.19C571.499 240.56 577.338 226.038 577.012 210.995C576.228 174.884 541.497 149.279 506.77 159.21Z" stroke="#FAE100" stroke-width="5"/>
</g>
<g filter="url(#filter8_d_5_2)">
<path d="M266.103 273.056L267.54 272.509C299.625 260.301 335.165 260.829 366.874 273.985C395.721 285.954 419.502 307.592 434.133 335.186L457.715 379.659C464.88 393.173 470.428 407.483 474.245 422.295L485.356 465.419C488.054 475.888 487.479 486.932 483.709 497.064C477.357 514.135 462.669 526.737 444.831 530.421L441.298 531.15C432.225 533.024 422.84 532.75 413.891 530.35L374.875 519.887C337.244 509.795 297.664 509.438 259.857 518.85L211.359 530.923C203.234 532.946 194.747 533.026 186.585 531.158C168.514 527.021 153.86 513.707 147.937 496.14C144.721 486.603 144.242 476.308 146.584 466.52L157.099 422.573C160.689 407.57 165.916 393.006 172.685 379.144L191.006 341.631C206.422 310.065 233.271 285.548 266.103 273.056Z" fill="#202020"/>
<path d="M266.651 270.173L265.214 270.719C231.788 283.438 204.454 308.398 188.759 340.534L170.439 378.047C163.589 392.074 158.3 406.81 154.668 421.991L144.153 465.938C141.701 476.186 142.202 486.959 145.568 496.939C151.768 515.325 167.104 529.263 186.027 533.595C194.572 535.551 203.457 535.467 211.963 533.349L260.461 521.276C297.857 511.966 337.006 512.319 374.227 522.302L413.244 532.765C422.569 535.266 432.349 535.551 441.804 533.599L445.337 532.869C464.018 529.011 479.4 515.813 486.052 497.936C490 487.325 490.602 475.759 487.777 464.795L476.666 421.671C472.8 406.669 467.181 392.175 459.923 378.488L436.342 334.014C421.439 305.908 397.216 283.867 367.832 271.676C335.534 258.275 299.333 257.738 266.651 270.173Z" stroke="#FFF020" stroke-width="5"/>
</g>
<g filter="url(#filter9_i_5_2)">
<path d="M247.386 408.285L259.773 381.685C267.247 365.633 281.155 353.423 298.026 348.047C310.35 344.119 323.623 344.065 335.971 347.916C353.452 353.367 367.699 366.151 375.005 382.942L386.5 409.359C389.873 417.112 388.597 426.103 383.2 432.611C378.121 438.737 370.175 441.71 362.323 440.424L329.935 435.119C321.369 433.716 312.632 433.722 304.067 435.137L271.818 440.465C264.142 441.733 256.348 439.007 251.136 433.232C244.991 426.423 243.515 416.599 247.386 408.285Z" fill="#FAE100"/>
</g>
<path d="M247.386 408.285L259.773 381.685C267.247 365.633 281.155 353.423 298.026 348.047C310.35 344.119 323.623 344.065 335.971 347.916C353.452 353.367 367.699 366.151 375.005 382.942L386.5 409.359C389.873 417.112 388.597 426.103 383.2 432.611C378.121 438.737 370.175 441.71 362.323 440.424L329.935 435.119C321.369 433.716 312.632 433.722 304.067 435.137L271.818 440.465C264.142 441.733 256.348 439.007 251.136 433.232C244.991 426.423 243.515 416.599 247.386 408.285Z" stroke="#FAE100"/>
<g filter="url(#filter10_d_5_2)">
<path d="M971.103 273.056L972.54 272.509C1004.63 260.301 1040.17 260.829 1071.87 273.985C1100.72 285.954 1124.5 307.592 1139.13 335.186L1162.71 379.659C1169.88 393.173 1175.43 407.483 1179.24 422.295L1190.36 465.419C1193.05 475.888 1192.48 486.932 1188.71 497.064C1182.36 514.135 1167.67 526.737 1149.83 530.421L1146.3 531.15C1137.23 533.024 1127.84 532.75 1118.89 530.35L1079.87 519.887C1042.24 509.795 1002.66 509.438 964.857 518.85L916.359 530.923C908.234 532.946 899.747 533.026 891.585 531.158C873.514 527.021 858.86 513.707 852.937 496.14C849.721 486.603 849.242 476.308 851.584 466.52L862.099 422.573C865.689 407.57 870.916 393.006 877.685 379.144L896.006 341.631C911.422 310.065 938.271 285.548 971.103 273.056Z" fill="#202020"/>
<path d="M971.651 270.173L970.214 270.719C936.788 283.438 909.454 308.398 893.759 340.534L875.439 378.047C868.589 392.074 863.3 406.81 859.668 421.991L849.153 465.938C846.701 476.186 847.202 486.959 850.568 496.939C856.768 515.325 872.104 529.263 891.027 533.595C899.572 535.551 908.457 535.467 916.963 533.349L965.461 521.276C1002.86 511.966 1042.01 512.319 1079.23 522.302L1118.24 532.765C1127.57 535.266 1137.35 535.551 1146.8 533.599L1150.34 532.869C1169.02 529.011 1184.4 515.813 1191.05 497.936C1195 487.325 1195.6 475.759 1192.78 464.795L1181.67 421.671C1177.8 406.669 1172.18 392.175 1164.92 378.488L1141.34 334.014C1126.44 305.908 1102.22 283.867 1072.83 271.676C1040.53 258.275 1004.33 257.738 971.651 270.173Z" stroke="#FFF020" stroke-width="5"/>
</g>
<g filter="url(#filter11_i_5_2)">
<path d="M951.386 408.285L963.773 381.685C971.247 365.633 985.155 353.423 1002.03 348.047C1014.35 344.119 1027.62 344.065 1039.97 347.916C1057.45 353.367 1071.7 366.151 1079.01 382.942L1090.5 409.359C1093.87 417.112 1092.6 426.103 1087.2 432.611C1082.12 438.737 1074.18 441.71 1066.32 440.424L1033.94 435.119C1025.37 433.716 1016.63 433.722 1008.07 435.137L975.818 440.465C968.142 441.733 960.348 439.007 955.136 433.232C948.991 426.423 947.515 416.599 951.386 408.285Z" fill="#FAE100"/>
</g>
<path d="M951.386 408.285L963.773 381.685C971.247 365.633 985.155 353.423 1002.03 348.047C1014.35 344.119 1027.62 344.065 1039.97 347.916C1057.45 353.367 1071.7 366.151 1079.01 382.942L1090.5 409.359C1093.87 417.112 1092.6 426.103 1087.2 432.611C1082.12 438.737 1074.18 441.71 1066.32 440.424L1033.94 435.119C1025.37 433.716 1016.63 433.722 1008.07 435.137L975.818 440.465C968.142 441.733 960.348 439.007 955.136 433.232C948.991 426.423 947.515 416.599 951.386 408.285Z" stroke="#FAE100"/>
<g filter="url(#filter12_d_5_2)">
<path d="M760.881 299H577.306C557.255 299 541 315.255 541 335.306C541 355.358 557.255 371.613 577.306 371.613H667.471C681.415 371.613 687.728 389.048 677.016 397.976L557.578 497.521C547.074 506.276 541 519.244 541 532.919C541 558.369 561.631 579 587.081 579H777.169C795.853 579 811 563.853 811 545.169C811 526.485 795.853 511.338 777.169 511.338H701C684.542 511.338 676.804 490.999 689.1 480.059L794.194 386.564C804.884 377.054 811 363.427 811 349.119C811 321.439 788.561 299 760.881 299Z" fill="#202020"/>
<path d="M760.881 296.5H577.306C555.874 296.5 538.5 313.874 538.5 335.306C538.5 356.739 555.874 374.113 577.306 374.113H667.471C679.077 374.113 684.331 388.625 675.416 396.055L555.978 495.6C544.903 504.83 538.5 518.502 538.5 532.919C538.5 559.75 560.25 581.5 587.081 581.5H777.169C797.234 581.5 813.5 565.234 813.5 545.169C813.5 525.104 797.234 508.838 777.169 508.838H701C686.84 508.838 680.183 491.339 690.762 481.927L795.856 388.432C807.079 378.447 813.5 364.141 813.5 349.119C813.5 320.058 789.942 296.5 760.881 296.5Z" stroke="#FFF020" stroke-width="5"/>
</g>
<defs>
<filter id="filter0_d_5_2" x="154.318" y="46.7531" width="147.999" height="181.757" filterUnits="userSpaceOnUse" color-interpolation-filters="sRGB">
<feFlood flood-opacity="0" result="BackgroundImageFix"/>
<feColorMatrix in="SourceAlpha" type="matrix" values="0 0 0 0 0 0 0 0 0 0 0 0 0 0 0 0 0 0 127 0" result="hardAlpha"/>
<feOffset dy="4"/>
<feGaussianBlur stdDeviation="2"/>
<feComposite in2="hardAlpha" operator="out"/>
<feColorMatrix type="matrix" values="0 0 0 0 0 0 0 0 0 0 0 0 0 0 0 0 0 0 0.25 0"/>
<feBlend mode="normal" in2="BackgroundImageFix" result="effect1_dropShadow_5_2"/>
<feBlend mode="normal" in="SourceGraphic" in2="effect1_dropShadow_5_2" result="shape"/>
</filter>
<filter id="filter1_d_5_2" x="40.4875" y="163.155" width="141.746" height="150.271" filterUnits="userSpaceOnUse" color-interpolation-filters="sRGB">
<feFlood flood-opacity="0" result="BackgroundImageFix"/>
<feColorMatrix in="SourceAlpha" type="matrix" values="0 0 0 0 0 0 0 0 0 0 0 0 0 0 0 0 0 0 127 0" result="hardAlpha"/>
<feOffset dy="4"/>
<feGaussianBlur stdDeviation="2"/>
<feComposite in2="hardAlpha" operator="out"/>
<feColorMatrix type="matrix" values="0 0 0 0 0 0 0 0 0 0 0 0 0 0 0 0 0 0 0.25 0"/>
<feBlend mode="normal" in2="BackgroundImageFix" result="effect1_dropShadow_5_2"/>
<feBlend mode="normal" in="SourceGraphic" in2="effect1_dropShadow_5_2" result="shape"/>
</filter>
<filter id="filter2_d_5_2" x="325.501" y="48.8818" width="149.037" height="182.032" filterUnits="userSpaceOnUse" color-interpolation-filters="sRGB">
<feFlood flood-opacity="0" result="BackgroundImageFix"/>
<feColorMatrix in="SourceAlpha" type="matrix" values="0 0 0 0 0 0 0 0 0 0 0 0 0 0 0 0 0 0 127 0" result="hardAlpha"/>
<feOffset dy="4"/>
<feGaussianBlur stdDeviation="2"/>
<feComposite in2="hardAlpha" operator="out"/>
<feColorMatrix type="matrix" values="0 0 0 0 0 0 0 0 0 0 0 0 0 0 0 0 0 0 0.25 0"/>
<feBlend mode="normal" in2="BackgroundImageFix" result="effect1_dropShadow_5_2"/>
<feBlend mode="normal" in="SourceGraphic" in2="effect1_dropShadow_5_2" result="shape"/>
</filter>
<filter id="filter3_d_5_2" x="442.997" y="154.553" width="140.528" height="151.817" filterUnits="userSpaceOnUse" color-interpolation-filters="sRGB">
<feFlood flood-opacity="0" result="BackgroundImageFix"/>
<feColorMatrix in="SourceAlpha" type="matrix" values="0 0 0 0 0 0 0 0 0 0 0 0 0 0 0 0 0 0 127 0" result="hardAlpha"/>
<feOffset dy="4"/>
<feGaussianBlur stdDeviation="2"/>
<feComposite in2="hardAlpha" operator="out"/>
<feColorMatrix type="matrix" values="0 0 0 0 0 0 0 0 0 0 0 0 0 0 0 0 0 0 0.25 0"/>
<feBlend mode="normal" in2="BackgroundImageFix" result="effect1_dropShadow_5_2"/>
<feBlend mode="normal" in="SourceGraphic" in2="effect1_dropShadow_5_2" result="shape"/>
</filter>
<filter id="filter4_d_5_2" x="154.318" y="46.7531" width="147.999" height="181.757" filterUnits="userSpaceOnUse" color-interpolation-filters="sRGB">
<feFlood flood-opacity="0" result="BackgroundImageFix"/>
<feColorMatrix in="SourceAlpha" type="matrix" values="0 0 0 0 0 0 0 0 0 0 0 0 0 0 0 0 0 0 127 0" result="hardAlpha"/>
<feOffset dy="4"/>
<feGaussianBlur stdDeviation="2"/>
<feComposite in2="hardAlpha" operator="out"/>
<feColorMatrix type="matrix" values="0 0 0 0 0 0 0 0 0 0 0 0 0 0 0 0 0 0 0.25 0"/>
<feBlend mode="normal" in2="BackgroundImageFix" result="effect1_dropShadow_5_2"/>
<feBlend mode="normal" in="SourceGraphic" in2="effect1_dropShadow_5_2" result="shape"/>
</filter>
<filter id="filter5_d_5_2" x="40.4875" y="163.155" width="141.746" height="150.271" filterUnits="userSpaceOnUse" color-interpolation-filters="sRGB">
<feFlood flood-opacity="0" result="BackgroundImageFix"/>
<feColorMatrix in="SourceAlpha" type="matrix" values="0 0 0 0 0 0 0 0 0 0 0 0 0 0 0 0 0 0 127 0" result="hardAlpha"/>
<feOffset dy="4"/>
<feGaussianBlur stdDeviation="2"/>
<feComposite in2="hardAlpha" operator="out"/>
<feColorMatrix type="matrix" values="0 0 0 0 0 0 0 0 0 0 0 0 0 0 0 0 0 0 0.25 0"/>
<feBlend mode="normal" in2="BackgroundImageFix" result="effect1_dropShadow_5_2"/>
<feBlend mode="normal" in="SourceGraphic" in2="effect1_dropShadow_5_2" result="shape"/>
</filter>
<filter id="filter6_d_5_2" x="325.501" y="48.8818" width="149.037" height="182.032" filterUnits="userSpaceOnUse" color-interpolation-filters="sRGB">
<feFlood flood-opacity="0" result="BackgroundImageFix"/>
<feColorMatrix in="SourceAlpha" type="matrix" values="0 0 0 0 0 0 0 0 0 0 0 0 0 0 0 0 0 0 127 0" result="hardAlpha"/>
<feOffset dy="4"/>
<feGaussianBlur stdDeviation="2"/>
<feComposite in2="hardAlpha" operator="out"/>
<feColorMatrix type="matrix" values="0 0 0 0 0 0 0 0 0 0 0 0 0 0 0 0 0 0 0.25 0"/>
<feBlend mode="normal" in2="BackgroundImageFix" result="effect1_dropShadow_5_2"/>
<feBlend mode="normal" in="SourceGraphic" in2="effect1_dropShadow_5_2" result="shape"/>
</filter>
<filter id="filter7_d_5_2" x="442.997" y="154.553" width="140.528" height="151.817" filterUnits="userSpaceOnUse" color-interpolation-filters="sRGB">
<feFlood flood-opacity="0" result="BackgroundImageFix"/>
<feColorMatrix in="SourceAlpha" type="matrix" values="0 0 0 0 0 0 0 0 0 0 0 0 0 0 0 0 0 0 127 0" result="hardAlpha"/>
<feOffset dy="4"/>
<feGaussianBlur stdDeviation="2"/>
<feComposite in2="hardAlpha" operator="out"/>
<feColorMatrix type="matrix" values="0 0 0 0 0 0 0 0 0 0 0 0 0 0 0 0 0 0 0.25 0"/>
<feBlend mode="normal" in2="BackgroundImageFix" result="effect1_dropShadow_5_2"/>
<feBlend mode="normal" in="SourceGraphic" in2="effect1_dropShadow_5_2" result="shape"/>
</filter>
<filter id="filter8_d_5_2" x="136.12" y="258.721" width="359.91" height="286.781" filterUnits="userSpaceOnUse" color-interpolation-filters="sRGB">
<feFlood flood-opacity="0" result="BackgroundImageFix"/>
<feColorMatrix in="SourceAlpha" type="matrix" values="0 0 0 0 0 0 0 0 0 0 0 0 0 0 0 0 0 0 127 0" result="hardAlpha"/>
<feOffset dy="4"/>
<feGaussianBlur stdDeviation="2"/>
<feComposite in2="hardAlpha" operator="out"/>
<feColorMatrix type="matrix" values="0 0 0 0 0 0 0 0 0 0 0 0 0 0 0 0 0 0 0.25 0"/>
<feBlend mode="normal" in2="BackgroundImageFix" result="effect1_dropShadow_5_2"/>
<feBlend mode="normal" in="SourceGraphic" in2="effect1_dropShadow_5_2" result="shape"/>
</filter>
<filter id="filter9_i_5_2" x="244.751" y="344.564" width="144.111" height="100.707" filterUnits="userSpaceOnUse" color-interpolation-filters="sRGB">
<feFlood flood-opacity="0" result="BackgroundImageFix"/>
<feBlend mode="normal" in="SourceGraphic" in2="BackgroundImageFix" result="shape"/>
<feColorMatrix in="SourceAlpha" type="matrix" values="0 0 0 0 0 0 0 0 0 0 0 0 0 0 0 0 0 0 127 0" result="hardAlpha"/>
<feOffset dy="4"/>
<feGaussianBlur stdDeviation="2"/>
<feComposite in2="hardAlpha" operator="arithmetic" k2="-1" k3="1"/>
<feColorMatrix type="matrix" values="0 0 0 0 0 0 0 0 0 0 0 0 0 0 0 0 0 0 0.25 0"/>
<feBlend mode="normal" in2="shape" result="effect1_innerShadow_5_2"/>
</filter>
<filter id="filter10_d_5_2" x="841.12" y="258.721" width="359.91" height="286.781" filterUnits="userSpaceOnUse" color-interpolation-filters="sRGB">
<feFlood flood-opacity="0" result="BackgroundImageFix"/>
<feColorMatrix in="SourceAlpha" type="matrix" values="0 0 0 0 0 0 0 0 0 0 0 0 0 0 0 0 0 0 127 0" result="hardAlpha"/>
<feOffset dy="4"/>
<feGaussianBlur stdDeviation="2"/>
<feComposite in2="hardAlpha" operator="out"/>
<feColorMatrix type="matrix" values="0 0 0 0 0 0 0 0 0 0 0 0 0 0 0 0 0 0 0.25 0"/>
<feBlend mode="normal" in2="BackgroundImageFix" result="effect1_dropShadow_5_2"/>
<feBlend mode="normal" in="SourceGraphic" in2="effect1_dropShadow_5_2" result="shape"/>
</filter>
<filter id="filter11_i_5_2" x="948.751" y="344.564" width="144.111" height="100.707" filterUnits="userSpaceOnUse" color-interpolation-filters="sRGB">
<feFlood flood-opacity="0" result="BackgroundImageFix"/>
<feBlend mode="normal" in="SourceGraphic" in2="BackgroundImageFix" result="shape"/>
<feColorMatrix in="SourceAlpha" type="matrix" values="0 0 0 0 0 0 0 0 0 0 0 0 0 0 0 0 0 0 127 0" result="hardAlpha"/>
<feOffset dy="4"/>
<feGaussianBlur stdDeviation="2"/>
<feComposite in2="hardAlpha" operator="arithmetic" k2="-1" k3="1"/>
<feColorMatrix type="matrix" values="0 0 0 0 0 0 0 0 0 0 0 0 0 0 0 0 0 0 0.25 0"/>
<feBlend mode="normal" in2="shape" result="effect1_innerShadow_5_2"/>
</filter>
<filter id="filter12_d_5_2" x="532" y="294" width="288" height="298" filterUnits="userSpaceOnUse" color-interpolation-filters="sRGB">
<feFlood flood-opacity="0" result="BackgroundImageFix"/>
<feColorMatrix in="SourceAlpha" type="matrix" values="0 0 0 0 0 0 0 0 0 0 0 0 0 0 0 0 0 0 127 0" result="hardAlpha"/>
<feOffset dy="4"/>
<feGaussianBlur stdDeviation="2"/>
<feComposite in2="hardAlpha" operator="out"/>
<feColorMatrix type="matrix" values="0 0 0 0 0 0 0 0 0 0 0 0 0 0 0 0 0 0 0.25 0"/>
<feBlend mode="normal" in2="BackgroundImageFix" result="effect1_dropShadow_5_2"/>
<feBlend mode="normal" in="SourceGraphic" in2="effect1_dropShadow_5_2" result="shape"/>
</filter>
</defs>
</svg>
